<svg width="64" height="64" viewBox="0 0 64 64" fill="none" xmlns="http://www.w3.org/2000/svg">
<path d="M8 2C5.79086 2 4 3.79086 4 6V12C4 14.2091 5.79086 16 8 16H20C22.2091 16 24 14.2091 24 12V6C24 3.79086 22.2091 2 20 2H8Z" fill="#ED4D12"/>
<path d="M4 24C4 21.7909 5.79086 20 8 20H20C22.2091 20 24 21.7909 24 24V34C24 38.4183 27.5817 42 32 42C36.4183 42 40 38.4183 40 34V24C40 21.7909 41.7909 20 44 20H56C58.2091 20 60 21.7909 60 24V34C60 49.464 47.464 62 32 62C16.536 62 4 49.464 4 34V24Z" fill="#ED4D12"/>
<path d="M40 6C40 3.79086 41.7909 2 44 2H56C58.2091 2 60 3.79086 60 6V12C60 14.2091 58.2091 16 56 16H44C41.7909 16 40 14.2091 40 12V6Z" fill="#ED4D12"/>
</svg>
